<?xml version='1.0' encoding='iso-8859-1'?>
<svg version="1.1" xmlns="http://www.w3.org/2000/svg" viewBox="0 0 367.59 367.59" xmlns:xlink="http://www.w3.org/1999/xlink" enable-background="new 0 0 367.59 367.59">
  <g>
    <g fill="#020202">
      <path d="m230.162,207.365c-13.1,11.428-29.089,18.168-46.367,18.168s-33.268-6.74-46.366-18.168c-69.541,20.088-120.397,84.214-120.397,160.225h333.526c0-76.011-50.856-140.137-120.396-160.225zm70.985,123.166h-86.47v-49.412h86.47v49.412z"/>
      <path d="m277.394,81h-10.471c-12.188-47.188-45.066-81-83.723-81-38.658,0-71.535,33.812-83.724,81h-14.082c-6.627,0-12,5.373-12,12v30c0,6.627 5.373,12 12,12h19.038c7.272,45.371 39.771,79.59 78.768,79.59 36.513,0 67.329-29.999 77.077-71.062-3.734,4.473-7.645,8.664-11.697,12.561-0.041,0.04-0.082,0.08-0.123,0.119-0.62,0.594-1.243,1.181-1.869,1.762-0.085,0.08-0.171,0.159-0.256,0.238-0.607,0.56-1.216,1.113-1.828,1.66-0.1,0.09-0.201,0.179-0.301,0.268-0.61,0.542-1.222,1.079-1.837,1.607-0.092,0.08-0.185,0.158-0.278,0.237-0.633,0.542-1.268,1.078-1.906,1.605-0.039,0.032-0.078,0.063-0.116,0.095-3.395,2.798-6.863,5.399-10.389,7.796-0.167,0.114-0.333,0.229-0.501,0.342-0.546,0.368-1.094,0.728-1.643,1.086-0.236,0.154-0.473,0.309-0.709,0.461-0.515,0.331-1.03,0.656-1.546,0.979-0.273,0.17-0.546,0.34-0.819,0.507-0.497,0.305-0.994,0.606-1.493,0.903-0.295,0.176-0.591,0.349-0.887,0.522-0.485,0.283-0.97,0.565-1.457,0.841-0.312,0.177-0.625,0.35-0.937,0.523-0.477,0.265-0.953,0.53-1.431,0.788-0.323,0.174-0.647,0.343-0.971,0.514-0.471,0.249-0.942,0.5-1.414,0.741-0.336,0.172-0.673,0.336-1.01,0.505-0.791,0.396-1.583,0.78-2.377,1.155-0.439,0.208-0.878,0.419-1.318,0.62-0.382,0.175-0.766,0.341-1.148,0.511-0.433,0.192-0.865,0.387-1.298,0.573-0.383,0.165-0.767,0.322-1.151,0.482-0.435,0.181-0.87,0.363-1.305,0.538-0.379,0.153-0.759,0.3-1.139,0.448-0.444,0.173-0.887,0.344-1.331,0.511-0.372,0.139-0.744,0.275-1.116,0.41-0.454,0.165-0.908,0.326-1.362,0.484-0.364,0.126-0.729,0.251-1.093,0.374-0.36,0.121-0.72,0.237-1.08,0.353 0.164,4.448-4.425,9.084-10.996,10.78-7.22,1.863-14.079-0.528-15.321-5.341s3.604-10.225 10.823-12.088c4.21-1.086 8.288-0.718 11.211,0.725 1.329-0.344 2.657-0.708 3.986-1.112 1.093-0.333 2.186-0.679 3.278-1.053 1.749-0.6 3.496-1.259 5.239-1.965 1.123-0.455 2.243-0.933 3.362-1.431 0.843-0.375 1.685-0.762 2.525-1.163 0.956-0.455 1.911-0.92 2.862-1.407 0.052-0.026 0.104-0.055 0.156-0.082 16.117-8.273 31.544-21.025 44.442-37.514h16.686c6.627,0 12-5.373 12-12v-30c5.68434e-14-6.623-5.373-11.996-12-11.996zm-171,54c6.627,0 12-5.373 12-12 0,6.628-5.373,12-12,12zm138-12c0,6.627 5.373,12 12,12-6.627,0-12-5.372-12-12zm0-30c0-6.627 5.373-12 12-12-6.627,0-12,5.373-12,12zm13.984-12c-11.431-37.424-40.776-64.056-75.178-64.056-34.439,0-63.809,26.688-75.214,64.175-0.405-0.054-0.815-0.089-1.232-0.102 12.146-42.171 42.18-72.018 77.313-72.018 35.127,0 65.156,29.838 77.307,72l-2.996,.001z"/>
    </g>
  </g>
</svg>
